<svg width="27" height="18" viewBox="0 0 27 18" fill="none" xmlns="http://www.w3.org/2000/svg">
<path d="M27 3C27 1.34531 25.6547 0 24 0H9.62344C8.82656 0 8.0625 0.314062 7.5 0.876562L0.440625 7.94062C0.159375 8.22187 0 8.60156 0 9C0 9.39844 0.159375 9.77813 0.440625 10.0594L7.5 17.1234C8.0625 17.6859 8.82656 18 9.62344 18H24C25.6547 18 27 16.6547 27 15V3ZM12.7031 5.20312C13.1438 4.7625 13.8562 4.7625 14.2922 5.20312L16.4953 7.40625L18.6984 5.20312C19.1391 4.7625 19.8516 4.7625 20.2875 5.20312C20.7234 5.64375 20.7281 6.35625 20.2875 6.79219L18.0844 8.99531L20.2875 11.1984C20.7281 11.6391 20.7281 12.3516 20.2875 12.7875C19.8469 13.2234 19.1344 13.2281 18.6984 12.7875L16.4953 10.5844L14.2922 12.7875C13.8516 13.2281 13.1391 13.2281 12.7031 12.7875C12.2672 12.3469 12.2625 11.6344 12.7031 11.1984L14.9062 8.99531L12.7031 6.79219C12.2625 6.35156 12.2625 5.63906 12.7031 5.20312Z" fill="#D30303"/>
</svg>
